<?xml version="1.0" encoding="utf-8"?>
<!-- Generator: Adobe Illustrator 19.0.1, SVG Export Plug-In . SVG Version: 6.00 Build 0)  -->
<svg version="1.1" id="Layer_1" xmlns="http://www.w3.org/2000/svg" xmlns:xlink="http://www.w3.org/1999/xlink" x="0px" y="0px"
	 viewBox="163 -164 512 512" style="enable-background:new 163 -164 512 512;" xml:space="preserve">
<style type="text/css">
	.st0{filter:url(#f1);}
	.st1{fill:#B9000F;}
	.st2{fill:none;}
</style>
<filter  width="200%" height="200%" id="f1" x="0" y="0">
	<feOffset  dy="20" dx="20" result="offOut" in="SourceAlpha"></feOffset>
	<feGaussianBlur  stdDeviation="10" result="blurOut" in="offOut"></feGaussianBlur>
	<feBlend  mode="normal" in2="blurOut" in="SourceGraphic"></feBlend>
</filter>
<g class="st0">
	<path class="st1" d="M394.2-1.7c71.8-7.8,146.4,18.7,197.2,70c7.9,9.1,7,23.9-1.9,32.1c-8,9.8-24.3,11-33.4,2
		C523.6,70.3,479.6,49.9,434,46.6C378.6,42,322,63,282.6,102c-9.1,9.6-26,8.5-34.2-1.7c-8.8-8.3-9.6-23.6-1.1-32.4
		C286.4,28.8,339.2,3.9,394.2-1.7z"/>
</g>
<g class="st0">
	<path class="st1" d="M404.8,89c45.3-4.5,92.2,12.9,123.7,45.7c8.6,9,7.6,24.5-1.5,32.8c-8.3,10-24.8,10.6-33.8,1.3
		c-17.8-18.2-42.4-29.8-67.9-31.2c-28.9-2.1-58.2,9.4-78.7,29.7c-5.1,5.7-12.6,9.2-20.2,8.3c-17.8-1.2-30.2-25.1-17.9-39.3
		C333.3,109.2,368.5,92.6,404.8,89z"/>
</g>
<g class="st0">
	<path class="st1" d="M411.8,173.7c29.2-4.9,58.8,19.2,59.8,48.8c2.7,29-22.9,56.6-52.1,56c-26.2,0.9-50.5-20.8-52.8-46.9
		C363,204.2,384.4,176.8,411.8,173.7z"/>
</g>
<rect x="163" y="-147" class="st2" width="577" height="518"/>
</svg>
