<?xml version="1.0" encoding="utf-8"?>
<!-- Generator: Adobe Illustrator 19.0.1, SVG Export Plug-In . SVG Version: 6.00 Build 0)  -->
<svg version="1.1" id="Layer_1" xmlns="http://www.w3.org/2000/svg" xmlns:xlink="http://www.w3.org/1999/xlink" x="0px" y="0px"
	 viewBox="163 -164 512 512" style="enable-background:new 163 -164 512 512;" xml:space="preserve">
<style type="text/css">
	.st0{filter:url(#f1);}
	.st1{fill:#B97100;}
</style>
<filter  width="200%" height="200%" id="f1" x="0" y="0">
	<feOffset  dy="20" dx="20" result="offOut" in="SourceAlpha"></feOffset>
	<feGaussianBlur  stdDeviation="10" result="blurOut" in="offOut"></feGaussianBlur>
	<feBlend  mode="normal" in2="blurOut" in="SourceGraphic"></feBlend>
</filter>
<g class="st0">
	<path class="st1" d="M441.8,91.7c-0.8-2.4-2.3-4.9-4.5-6.4c-4.2-2.8-9.1-4.3-13.8-5.9c-1.1-0.4-2.3-0.8-3.3-1.5
		c-0.9-0.6-1.3-1.7-1.5-2.7c-0.1-0.5-0.1-1.1-0.2-1.6c3.4-4.7,5.7-12.3,5.7-18.6c0-9.8-5.5-12.5-12.4-12.5
		c-6.8,0-12.4,2.7-12.4,12.5c0,6.5,2.4,14.5,6.1,19.1c0,0.4-0.1,0.7-0.1,1.1c-0.2,1-0.6,2.1-1.5,2.7c-1,0.6-2.2,1-3.3,1.4
		c-4.7,1.6-9.6,3-13.8,5.8c-2.2,1.4-3.7,4.1-4.5,6.5c-0.8,2.5-1.2,5.7-1.1,8.2H412h30.9C442.9,97.4,442.6,94.3,441.8,91.7z"/>
</g>
</svg>
